<svg width="1728" height="99" viewBox="0 0 1728 99" fill="none" xmlns="http://www.w3.org/2000/svg">
<rect width="1729" height="99" fill="#005AFF"/>
<path d="M628.36 55.736C626.568 55.736 625.248 55.256 624.4 54.296C623.552 53.336 623.128 52.024 623.128 50.36C623.128 48.68 623.592 47.368 624.52 46.424C625.464 45.464 626.728 44.984 628.312 44.984C628.888 44.984 629.424 45.04 629.92 45.152C630.432 45.248 630.904 45.408 631.336 45.632L630.736 46.856C630.368 46.68 629.976 46.552 629.56 46.472C629.16 46.376 628.736 46.328 628.288 46.328C627.232 46.328 626.4 46.68 625.792 47.384C625.184 48.088 624.88 49.088 624.88 50.384C624.88 53.056 626.056 54.392 628.408 54.392C628.904 54.392 629.36 54.36 629.776 54.296C630.192 54.232 630.576 54.136 630.928 54.008V55.352C630.576 55.464 630.184 55.56 629.752 55.64C629.336 55.704 628.872 55.736 628.36 55.736ZM628 60.32C626.64 60.32 625.36 60.064 624.16 59.552C622.96 59.04 621.904 58.336 620.992 57.44C620.096 56.528 619.392 55.472 618.88 54.272C618.368 53.072 618.112 51.792 618.112 50.432C618.112 49.056 618.368 47.776 618.88 46.592C619.392 45.392 620.096 44.344 620.992 43.448C621.904 42.536 622.96 41.824 624.16 41.312C625.36 40.8 626.64 40.544 628 40.544C629.376 40.544 630.656 40.8 631.84 41.312C633.04 41.824 634.088 42.536 634.984 43.448C635.896 44.344 636.608 45.392 637.12 46.592C637.632 47.776 637.888 49.056 637.888 50.432C637.888 51.792 637.632 53.072 637.12 54.272C636.608 55.472 635.896 56.528 634.984 57.44C634.088 58.336 633.04 59.04 631.84 59.552C630.656 60.064 629.376 60.32 628 60.32ZM628 58.976C629.184 58.976 630.288 58.76 631.312 58.328C632.352 57.88 633.264 57.264 634.048 56.48C634.832 55.696 635.44 54.792 635.872 53.768C636.32 52.728 636.544 51.616 636.544 50.432C636.544 49.248 636.32 48.144 635.872 47.12C635.44 46.08 634.832 45.168 634.048 44.384C633.264 43.6 632.352 42.992 631.312 42.56C630.288 42.112 629.184 41.888 628 41.888C626.816 41.888 625.704 42.112 624.664 42.56C623.64 42.992 622.736 43.6 621.952 44.384C621.168 45.168 620.552 46.08 620.104 47.12C619.672 48.144 619.456 49.248 619.456 50.432C619.456 51.616 619.672 52.728 620.104 53.768C620.552 54.792 621.168 55.696 621.952 56.48C622.736 57.264 623.64 57.88 624.664 58.328C625.704 58.76 626.816 58.976 628 58.976ZM653.224 54.8H644.296L642.448 59H639.976L647.584 42.2H649.96L657.592 59H655.072L653.224 54.8ZM652.384 52.88L648.76 44.648L645.136 52.88H652.384ZM659.762 41.192H662.066V59H659.762V41.192ZM666.465 41.192H668.769V59H666.465V41.192ZM681.822 48.416C682.222 47.68 682.814 47.12 683.598 46.736C684.382 46.352 685.334 46.16 686.454 46.16V48.392C686.326 48.376 686.15 48.368 685.926 48.368C684.678 48.368 683.694 48.744 682.974 49.496C682.27 50.232 681.918 51.288 681.918 52.664V59H679.614V46.28H681.822V48.416ZM689.293 46.28H691.597V59H689.293V46.28ZM690.445 43.832C689.997 43.832 689.621 43.688 689.317 43.4C689.029 43.112 688.885 42.76 688.885 42.344C688.885 41.928 689.029 41.576 689.317 41.288C689.621 40.984 689.997 40.832 690.445 40.832C690.893 40.832 691.261 40.976 691.549 41.264C691.853 41.536 692.005 41.88 692.005 42.296C692.005 42.728 691.853 43.096 691.549 43.4C691.261 43.688 690.893 43.832 690.445 43.832ZM708.165 46.28V57.272C708.165 59.496 707.613 61.136 706.509 62.192C705.405 63.264 703.757 63.8 701.565 63.8C700.365 63.8 699.221 63.632 698.133 63.296C697.045 62.976 696.165 62.512 695.493 61.904L696.597 60.128C697.189 60.64 697.917 61.04 698.781 61.328C699.661 61.632 700.565 61.784 701.493 61.784C702.981 61.784 704.077 61.432 704.781 60.728C705.501 60.024 705.861 58.952 705.861 57.512V56.504C705.317 57.16 704.645 57.656 703.845 57.992C703.061 58.312 702.205 58.472 701.277 58.472C700.061 58.472 698.957 58.216 697.965 57.704C696.989 57.176 696.221 56.448 695.661 55.52C695.101 54.576 694.821 53.504 694.821 52.304C694.821 51.104 695.101 50.04 695.661 49.112C696.221 48.168 696.989 47.44 697.965 46.928C698.957 46.416 700.061 46.16 701.277 46.16C702.237 46.16 703.125 46.336 703.941 46.688C704.773 47.04 705.453 47.56 705.981 48.248V46.28H708.165ZM701.541 56.456C702.373 56.456 703.117 56.28 703.773 55.928C704.445 55.576 704.965 55.088 705.333 54.464C705.717 53.824 705.909 53.104 705.909 52.304C705.909 51.072 705.501 50.08 704.685 49.328C703.869 48.56 702.821 48.176 701.541 48.176C700.245 48.176 699.189 48.56 698.373 49.328C697.557 50.08 697.149 51.072 697.149 52.304C697.149 53.104 697.333 53.824 697.701 54.464C698.085 55.088 698.605 55.576 699.261 55.928C699.933 56.28 700.693 56.456 701.541 56.456ZM719.359 46.16C720.975 46.16 722.255 46.632 723.199 47.576C724.159 48.504 724.639 49.872 724.639 51.68V59H722.335V51.944C722.335 50.712 722.039 49.784 721.447 49.16C720.855 48.536 720.007 48.224 718.903 48.224C717.655 48.224 716.671 48.592 715.951 49.328C715.231 50.048 714.871 51.088 714.871 52.448V59H712.567V41.192H714.871V48.08C715.351 47.472 715.975 47 716.743 46.664C717.527 46.328 718.399 46.16 719.359 46.16ZM736.055 58.256C735.719 58.544 735.303 58.768 734.807 58.928C734.311 59.072 733.799 59.144 733.271 59.144C731.991 59.144 730.999 58.8 730.295 58.112C729.591 57.424 729.239 56.44 729.239 55.16V48.176H727.079V46.28H729.239V43.496H731.543V46.28H735.191V48.176H731.543V55.064C731.543 55.752 731.711 56.28 732.047 56.648C732.399 57.016 732.895 57.2 733.535 57.2C734.239 57.2 734.839 57 735.335 56.6L736.055 58.256ZM742.488 59.144C741.448 59.144 740.448 59.008 739.488 58.736C738.528 58.448 737.776 58.088 737.232 57.656L738.192 55.832C738.752 56.232 739.432 56.552 740.232 56.792C741.032 57.032 741.84 57.152 742.656 57.152C744.672 57.152 745.68 56.576 745.68 55.424C745.68 55.04 745.544 54.736 745.272 54.512C745 54.288 744.656 54.128 744.24 54.032C743.84 53.92 743.264 53.8 742.512 53.672C741.488 53.512 740.648 53.328 739.992 53.12C739.352 52.912 738.8 52.56 738.336 52.064C737.872 51.568 737.64 50.872 737.64 49.976C737.64 48.824 738.12 47.904 739.08 47.216C740.04 46.512 741.328 46.16 742.944 46.16C743.792 46.16 744.64 46.264 745.488 46.472C746.336 46.68 747.032 46.96 747.576 47.312L746.592 49.136C745.552 48.464 744.328 48.128 742.92 48.128C741.944 48.128 741.2 48.288 740.688 48.608C740.176 48.928 739.92 49.352 739.92 49.88C739.92 50.296 740.064 50.624 740.352 50.864C740.64 51.104 740.992 51.28 741.408 51.392C741.84 51.504 742.44 51.632 743.208 51.776C744.232 51.952 745.056 52.144 745.68 52.352C746.32 52.544 746.864 52.88 747.312 53.36C747.76 53.84 747.984 54.512 747.984 55.376C747.984 56.528 747.488 57.448 746.496 58.136C745.52 58.808 744.184 59.144 742.488 59.144ZM759.517 48.416C759.917 47.68 760.509 47.12 761.293 46.736C762.077 46.352 763.029 46.16 764.149 46.16V48.392C764.021 48.376 763.845 48.368 763.621 48.368C762.373 48.368 761.389 48.744 760.669 49.496C759.965 50.232 759.613 51.288 759.613 52.664V59H757.309V46.28H759.517V48.416ZM778.368 52.712C778.368 52.888 778.352 53.12 778.32 53.408H768C768.144 54.528 768.632 55.432 769.464 56.12C770.312 56.792 771.36 57.128 772.608 57.128C774.128 57.128 775.352 56.616 776.28 55.592L777.552 57.08C776.976 57.752 776.256 58.264 775.392 58.616C774.544 58.968 773.592 59.144 772.536 59.144C771.192 59.144 770 58.872 768.96 58.328C767.92 57.768 767.112 56.992 766.536 56C765.976 55.008 765.696 53.888 765.696 52.64C765.696 51.408 765.968 50.296 766.512 49.304C767.072 48.312 767.832 47.544 768.792 47C769.768 46.44 770.864 46.16 772.08 46.16C773.296 46.16 774.376 46.44 775.32 47C776.28 47.544 777.024 48.312 777.552 49.304C778.096 50.296 778.368 51.432 778.368 52.712ZM772.08 48.104C770.976 48.104 770.048 48.44 769.296 49.112C768.56 49.784 768.128 50.664 768 51.752H776.16C776.032 50.68 775.592 49.808 774.84 49.136C774.104 48.448 773.184 48.104 772.08 48.104ZM785.215 59.144C784.175 59.144 783.175 59.008 782.215 58.736C781.255 58.448 780.503 58.088 779.959 57.656L780.919 55.832C781.479 56.232 782.159 56.552 782.959 56.792C783.759 57.032 784.567 57.152 785.383 57.152C787.399 57.152 788.407 56.576 788.407 55.424C788.407 55.04 788.271 54.736 787.999 54.512C787.727 54.288 787.383 54.128 786.967 54.032C786.567 53.92 785.991 53.8 785.239 53.672C784.215 53.512 783.375 53.328 782.719 53.12C782.079 52.912 781.527 52.56 781.063 52.064C780.599 51.568 780.367 50.872 780.367 49.976C780.367 48.824 780.847 47.904 781.807 47.216C782.767 46.512 784.055 46.16 785.671 46.16C786.519 46.16 787.367 46.264 788.215 46.472C789.063 46.68 789.759 46.96 790.303 47.312L789.319 49.136C788.279 48.464 787.055 48.128 785.647 48.128C784.671 48.128 783.927 48.288 783.415 48.608C782.903 48.928 782.647 49.352 782.647 49.88C782.647 50.296 782.791 50.624 783.079 50.864C783.367 51.104 783.719 51.28 784.135 51.392C784.567 51.504 785.167 51.632 785.935 51.776C786.959 51.952 787.783 52.144 788.407 52.352C789.047 52.544 789.591 52.88 790.039 53.36C790.487 53.84 790.711 54.512 790.711 55.376C790.711 56.528 790.215 57.448 789.223 58.136C788.247 58.808 786.911 59.144 785.215 59.144ZM805.086 52.712C805.086 52.888 805.07 53.12 805.038 53.408H794.718C794.862 54.528 795.35 55.432 796.182 56.12C797.03 56.792 798.078 57.128 799.326 57.128C800.846 57.128 802.07 56.616 802.998 55.592L804.27 57.08C803.694 57.752 802.974 58.264 802.11 58.616C801.262 58.968 800.31 59.144 799.254 59.144C797.91 59.144 796.718 58.872 795.678 58.328C794.638 57.768 793.83 56.992 793.254 56C792.694 55.008 792.414 53.888 792.414 52.64C792.414 51.408 792.686 50.296 793.23 49.304C793.79 48.312 794.55 47.544 795.51 47C796.486 46.44 797.582 46.16 798.798 46.16C800.014 46.16 801.094 46.44 802.038 47C802.998 47.544 803.742 48.312 804.27 49.304C804.814 50.296 805.086 51.432 805.086 52.712ZM798.798 48.104C797.694 48.104 796.766 48.44 796.014 49.112C795.278 49.784 794.846 50.664 794.718 51.752H802.878C802.75 50.68 802.31 49.808 801.558 49.136C800.822 48.448 799.902 48.104 798.798 48.104ZM810.494 48.416C810.894 47.68 811.486 47.12 812.27 46.736C813.054 46.352 814.006 46.16 815.126 46.16V48.392C814.998 48.376 814.822 48.368 814.598 48.368C813.35 48.368 812.366 48.744 811.646 49.496C810.942 50.232 810.59 51.288 810.59 52.664V59H808.286V46.28H810.494V48.416ZM829.737 46.28L824.169 59H821.817L816.249 46.28H818.649L823.017 56.48L827.481 46.28H829.737ZM843.032 52.712C843.032 52.888 843.016 53.12 842.984 53.408H832.664C832.808 54.528 833.296 55.432 834.128 56.12C834.976 56.792 836.024 57.128 837.272 57.128C838.792 57.128 840.016 56.616 840.944 55.592L842.216 57.08C841.64 57.752 840.92 58.264 840.056 58.616C839.208 58.968 838.256 59.144 837.2 59.144C835.856 59.144 834.664 58.872 833.624 58.328C832.584 57.768 831.776 56.992 831.2 56C830.64 55.008 830.36 53.888 830.36 52.64C830.36 51.408 830.632 50.296 831.176 49.304C831.736 48.312 832.496 47.544 833.456 47C834.432 46.44 835.528 46.16 836.744 46.16C837.96 46.16 839.04 46.44 839.984 47C840.944 47.544 841.688 48.312 842.216 49.304C842.76 50.296 843.032 51.432 843.032 52.712ZM836.744 48.104C835.64 48.104 834.712 48.44 833.96 49.112C833.224 49.784 832.792 50.664 832.664 51.752H840.824C840.696 50.68 840.256 49.808 839.504 49.136C838.768 48.448 837.848 48.104 836.744 48.104ZM858.231 41.192V59H856.023V56.984C855.511 57.688 854.863 58.224 854.079 58.592C853.295 58.96 852.431 59.144 851.487 59.144C850.255 59.144 849.151 58.872 848.175 58.328C847.199 57.784 846.431 57.024 845.871 56.048C845.327 55.056 845.055 53.92 845.055 52.64C845.055 51.36 845.327 50.232 845.871 49.256C846.431 48.28 847.199 47.52 848.175 46.976C849.151 46.432 850.255 46.16 851.487 46.16C852.399 46.16 853.239 46.336 854.007 46.688C854.775 47.024 855.415 47.528 855.927 48.2V41.192H858.231ZM851.679 57.128C852.479 57.128 853.207 56.944 853.863 56.576C854.519 56.192 855.031 55.664 855.399 54.992C855.767 54.304 855.951 53.52 855.951 52.64C855.951 51.76 855.767 50.984 855.399 50.312C855.031 49.624 854.519 49.096 853.863 48.728C853.207 48.36 852.479 48.176 851.679 48.176C850.863 48.176 850.127 48.36 849.471 48.728C848.831 49.096 848.319 49.624 847.935 50.312C847.567 50.984 847.383 51.76 847.383 52.64C847.383 53.52 847.567 54.304 847.935 54.992C848.319 55.664 848.831 56.192 849.471 56.576C850.127 56.944 850.863 57.128 851.679 57.128ZM869.372 41.192H871.508V63.656H869.372V41.192ZM897.437 42.2V59H895.037V51.512H885.389V59H882.989V42.2H885.389V49.424H895.037V42.2H897.437ZM907.577 59.144C906.313 59.144 905.177 58.864 904.169 58.304C903.161 57.744 902.369 56.976 901.793 56C901.233 55.008 900.953 53.888 900.953 52.64C900.953 51.392 901.233 50.28 901.793 49.304C902.369 48.312 903.161 47.544 904.169 47C905.177 46.44 906.313 46.16 907.577 46.16C908.841 46.16 909.969 46.44 910.961 47C911.969 47.544 912.753 48.312 913.313 49.304C913.889 50.28 914.177 51.392 914.177 52.64C914.177 53.888 913.889 55.008 913.313 56C912.753 56.976 911.969 57.744 910.961 58.304C909.969 58.864 908.841 59.144 907.577 59.144ZM907.577 57.128C908.393 57.128 909.121 56.944 909.761 56.576C910.417 56.192 910.929 55.664 911.297 54.992C911.665 54.304 911.849 53.52 911.849 52.64C911.849 51.76 911.665 50.984 911.297 50.312C910.929 49.624 910.417 49.096 909.761 48.728C909.121 48.36 908.393 48.176 907.577 48.176C906.761 48.176 906.025 48.36 905.369 48.728C904.729 49.096 904.217 49.624 903.833 50.312C903.465 50.984 903.281 51.76 903.281 52.64C903.281 53.52 903.465 54.304 903.833 54.992C904.217 55.664 904.729 56.192 905.369 56.576C906.025 56.944 906.761 57.128 907.577 57.128ZM929.22 46.28V59H927.036V57.08C926.572 57.736 925.956 58.248 925.188 58.616C924.436 58.968 923.612 59.144 922.716 59.144C921.02 59.144 919.684 58.68 918.708 57.752C917.732 56.808 917.244 55.424 917.244 53.6V46.28H919.548V53.336C919.548 54.568 919.844 55.504 920.436 56.144C921.028 56.768 921.876 57.08 922.98 57.08C924.196 57.08 925.156 56.712 925.86 55.976C926.564 55.24 926.916 54.2 926.916 52.856V46.28H929.22ZM937.254 59.144C936.214 59.144 935.214 59.008 934.254 58.736C933.294 58.448 932.542 58.088 931.998 57.656L932.958 55.832C933.518 56.232 934.198 56.552 934.998 56.792C935.798 57.032 936.606 57.152 937.422 57.152C939.438 57.152 940.446 56.576 940.446 55.424C940.446 55.04 940.31 54.736 940.038 54.512C939.766 54.288 939.422 54.128 939.006 54.032C938.606 53.92 938.03 53.8 937.278 53.672C936.254 53.512 935.414 53.328 934.758 53.12C934.118 52.912 933.566 52.56 933.102 52.064C932.638 51.568 932.406 50.872 932.406 49.976C932.406 48.824 932.886 47.904 933.846 47.216C934.806 46.512 936.094 46.16 937.71 46.16C938.558 46.16 939.406 46.264 940.254 46.472C941.102 46.68 941.798 46.96 942.342 47.312L941.358 49.136C940.318 48.464 939.094 48.128 937.686 48.128C936.71 48.128 935.966 48.288 935.454 48.608C934.942 48.928 934.686 49.352 934.686 49.88C934.686 50.296 934.83 50.624 935.118 50.864C935.406 51.104 935.758 51.28 936.174 51.392C936.606 51.504 937.206 51.632 937.974 51.776C938.998 51.952 939.822 52.144 940.446 52.352C941.086 52.544 941.63 52.88 942.078 53.36C942.526 53.84 942.75 54.512 942.75 55.376C942.75 56.528 942.254 57.448 941.262 58.136C940.286 58.808 938.95 59.144 937.254 59.144ZM957.125 52.712C957.125 52.888 957.109 53.12 957.077 53.408H946.757C946.901 54.528 947.389 55.432 948.221 56.12C949.069 56.792 950.117 57.128 951.365 57.128C952.885 57.128 954.109 56.616 955.037 55.592L956.309 57.08C955.733 57.752 955.013 58.264 954.149 58.616C953.301 58.968 952.349 59.144 951.293 59.144C949.949 59.144 948.757 58.872 947.717 58.328C946.677 57.768 945.869 56.992 945.293 56C944.733 55.008 944.453 53.888 944.453 52.64C944.453 51.408 944.725 50.296 945.269 49.304C945.829 48.312 946.589 47.544 947.549 47C948.525 46.44 949.621 46.16 950.837 46.16C952.053 46.16 953.133 46.44 954.077 47C955.037 47.544 955.781 48.312 956.309 49.304C956.853 50.296 957.125 51.432 957.125 52.712ZM950.837 48.104C949.733 48.104 948.805 48.44 948.053 49.112C947.317 49.784 946.885 50.664 946.757 51.752H954.917C954.789 50.68 954.349 49.808 953.597 49.136C952.861 48.448 951.941 48.104 950.837 48.104ZM981.554 42.2V59H979.154V51.512H969.506V59H967.106V42.2H969.506V49.424H979.154V42.2H981.554ZM991.695 59.144C990.431 59.144 989.295 58.864 988.287 58.304C987.279 57.744 986.487 56.976 985.911 56C985.351 55.008 985.071 53.888 985.071 52.64C985.071 51.392 985.351 50.28 985.911 49.304C986.487 48.312 987.279 47.544 988.287 47C989.295 46.44 990.431 46.16 991.695 46.16C992.959 46.16 994.087 46.44 995.079 47C996.087 47.544 996.871 48.312 997.431 49.304C998.007 50.28 998.295 51.392 998.295 52.64C998.295 53.888 998.007 55.008 997.431 56C996.871 56.976 996.087 57.744 995.079 58.304C994.087 58.864 992.959 59.144 991.695 59.144ZM991.695 57.128C992.511 57.128 993.239 56.944 993.879 56.576C994.535 56.192 995.047 55.664 995.415 54.992C995.783 54.304 995.967 53.52 995.967 52.64C995.967 51.76 995.783 50.984 995.415 50.312C995.047 49.624 994.535 49.096 993.879 48.728C993.239 48.36 992.511 48.176 991.695 48.176C990.879 48.176 990.143 48.36 989.487 48.728C988.847 49.096 988.335 49.624 987.951 50.312C987.583 50.984 987.399 51.76 987.399 52.64C987.399 53.52 987.583 54.304 987.951 54.992C988.335 55.664 988.847 56.192 989.487 56.576C990.143 56.944 990.879 57.128 991.695 57.128ZM1013.34 46.28V59H1011.15V57.08C1010.69 57.736 1010.07 58.248 1009.3 58.616C1008.55 58.968 1007.73 59.144 1006.83 59.144C1005.14 59.144 1003.8 58.68 1002.82 57.752C1001.85 56.808 1001.36 55.424 1001.36 53.6V46.28H1003.66V53.336C1003.66 54.568 1003.96 55.504 1004.55 56.144C1005.14 56.768 1005.99 57.08 1007.1 57.08C1008.31 57.08 1009.27 56.712 1009.98 55.976C1010.68 55.24 1011.03 54.2 1011.03 52.856V46.28H1013.34ZM1024.52 46.16C1026.13 46.16 1027.41 46.632 1028.36 47.576C1029.32 48.504 1029.8 49.872 1029.8 51.68V59H1027.49V51.944C1027.49 50.712 1027.2 49.784 1026.6 49.16C1026.01 48.536 1025.16 48.224 1024.06 48.224C1022.81 48.224 1021.83 48.592 1021.11 49.328C1020.39 50.048 1020.03 51.088 1020.03 52.448V59H1017.72V46.28H1019.93V48.2C1020.4 47.544 1021.02 47.04 1021.8 46.688C1022.6 46.336 1023.51 46.16 1024.52 46.16ZM1046.13 41.192V59H1043.92V56.984C1043.41 57.688 1042.76 58.224 1041.98 58.592C1041.19 58.96 1040.33 59.144 1039.39 59.144C1038.15 59.144 1037.05 58.872 1036.07 58.328C1035.1 57.784 1034.33 57.024 1033.77 56.048C1033.23 55.056 1032.95 53.92 1032.95 52.64C1032.95 51.36 1033.23 50.232 1033.77 49.256C1034.33 48.28 1035.1 47.52 1036.07 46.976C1037.05 46.432 1038.15 46.16 1039.39 46.16C1040.3 46.16 1041.14 46.336 1041.91 46.688C1042.67 47.024 1043.31 47.528 1043.83 48.2V41.192H1046.13ZM1039.58 57.128C1040.38 57.128 1041.11 56.944 1041.76 56.576C1042.42 56.192 1042.93 55.664 1043.3 54.992C1043.67 54.304 1043.85 53.52 1043.85 52.64C1043.85 51.76 1043.67 50.984 1043.3 50.312C1042.93 49.624 1042.42 49.096 1041.76 48.728C1041.11 48.36 1040.38 48.176 1039.58 48.176C1038.76 48.176 1038.03 48.36 1037.37 48.728C1036.73 49.096 1036.22 49.624 1035.83 50.312C1035.47 50.984 1035.28 51.76 1035.28 52.64C1035.28 53.52 1035.47 54.304 1035.83 54.992C1036.22 55.664 1036.73 56.192 1037.37 56.576C1038.03 56.944 1038.76 57.128 1039.58 57.128ZM1067.71 56.912V59H1055.64V57.368L1062.48 50.768C1063.31 49.968 1063.87 49.28 1064.16 48.704C1064.45 48.112 1064.59 47.52 1064.59 46.928C1064.59 46.048 1064.28 45.368 1063.65 44.888C1063.05 44.392 1062.17 44.144 1061.01 44.144C1059.16 44.144 1057.73 44.752 1056.72 45.968L1055.09 44.552C1055.74 43.752 1056.6 43.128 1057.65 42.68C1058.73 42.232 1059.92 42.008 1061.23 42.008C1062.99 42.008 1064.39 42.432 1065.43 43.28C1066.47 44.112 1066.99 45.248 1066.99 46.688C1066.99 47.584 1066.8 48.432 1066.41 49.232C1066.03 50.032 1065.3 50.944 1064.23 51.968L1059.09 56.912H1067.71ZM1076.48 59.192C1075.15 59.192 1073.96 58.856 1072.92 58.184C1071.9 57.496 1071.09 56.504 1070.5 55.208C1069.91 53.912 1069.61 52.376 1069.61 50.6C1069.61 48.824 1069.91 47.288 1070.5 45.992C1071.09 44.696 1071.9 43.712 1072.92 43.04C1073.96 42.352 1075.15 42.008 1076.48 42.008C1077.79 42.008 1078.96 42.352 1079.98 43.04C1081.02 43.712 1081.84 44.696 1082.43 45.992C1083.02 47.288 1083.32 48.824 1083.32 50.6C1083.32 52.376 1083.02 53.912 1082.43 55.208C1081.84 56.504 1081.02 57.496 1079.98 58.184C1078.96 58.856 1077.79 59.192 1076.48 59.192ZM1076.48 57.056C1077.82 57.056 1078.89 56.504 1079.69 55.4C1080.51 54.296 1080.92 52.696 1080.92 50.6C1080.92 48.504 1080.51 46.904 1079.69 45.8C1078.89 44.696 1077.82 44.144 1076.48 44.144C1075.12 44.144 1074.03 44.696 1073.21 45.8C1072.41 46.904 1072.01 48.504 1072.01 50.6C1072.01 52.696 1072.41 54.296 1073.21 55.4C1074.03 56.504 1075.12 57.056 1076.48 57.056ZM1097.36 56.912V59H1085.29V57.368L1092.13 50.768C1092.96 49.968 1093.52 49.28 1093.81 48.704C1094.09 48.112 1094.24 47.52 1094.24 46.928C1094.24 46.048 1093.93 45.368 1093.3 44.888C1092.69 44.392 1091.81 44.144 1090.66 44.144C1088.81 44.144 1087.37 44.752 1086.37 45.968L1084.73 44.552C1085.39 43.752 1086.25 43.128 1087.3 42.68C1088.37 42.232 1089.57 42.008 1090.88 42.008C1092.64 42.008 1094.04 42.432 1095.08 43.28C1096.12 44.112 1096.64 45.248 1096.64 46.688C1096.64 47.584 1096.45 48.432 1096.06 49.232C1095.68 50.032 1094.95 50.944 1093.88 51.968L1088.74 56.912H1097.36ZM1105.76 49.256C1107.41 49.416 1108.67 49.928 1109.53 50.792C1110.4 51.64 1110.83 52.728 1110.83 54.056C1110.83 55.016 1110.59 55.888 1110.11 56.672C1109.63 57.44 1108.91 58.056 1107.95 58.52C1107 58.968 1105.84 59.192 1104.47 59.192C1103.27 59.192 1102.12 59.016 1101.01 58.664C1099.91 58.296 1099 57.792 1098.3 57.152L1099.4 55.256C1099.98 55.8 1100.72 56.24 1101.61 56.576C1102.51 56.896 1103.46 57.056 1104.47 57.056C1105.72 57.056 1106.68 56.792 1107.37 56.264C1108.08 55.736 1108.43 55.008 1108.43 54.08C1108.43 53.152 1108.08 52.432 1107.4 51.92C1106.71 51.408 1105.67 51.152 1104.28 51.152H1102.93V49.472L1107.16 44.288H1099.07V42.2H1110.16V43.832L1105.76 49.256Z" fill="white" fill-opacity="0.7"/>
</svg>
