<svg width="141" height="61" viewBox="0 0 141 61" fill="none" xmlns="http://www.w3.org/2000/svg">
<rect width="61" height="61" rx="11" fill="#FFD600"/>
<path d="M55.9808 31L30 5.01924L4.01924 31L30 56.9808L55.9808 31ZM-3.93403e-07 35.5L30 35.5L30 26.5L3.93403e-07 26.5L-3.93403e-07 35.5Z" fill="#0054EC"/>
<path d="M85.72 14V28H81.76V22.54H76.36V28H72.4V14H76.36V19.26H81.76V14H85.72ZM93.7733 28.18C92.6133 28.18 91.5666 27.94 90.6333 27.46C89.6999 26.98 88.9666 26.3133 88.4333 25.46C87.9133 24.6067 87.6533 23.64 87.6533 22.56C87.6533 21.4933 87.9133 20.5333 88.4333 19.68C88.9666 18.8267 89.6933 18.1667 90.6133 17.7C91.5466 17.22 92.5999 16.98 93.7733 16.98C94.9466 16.98 95.9999 17.22 96.9333 17.7C97.8666 18.1667 98.5933 18.8267 99.1133 19.68C99.6333 20.52 99.8933 21.48 99.8933 22.56C99.8933 23.64 99.6333 24.6067 99.1133 25.46C98.5933 26.3133 97.8666 26.98 96.9333 27.46C95.9999 27.94 94.9466 28.18 93.7733 28.18ZM93.7733 25.16C94.4399 25.16 94.9866 24.9333 95.4133 24.48C95.8399 24.0133 96.0533 23.3733 96.0533 22.56C96.0533 21.76 95.8399 21.1333 95.4133 20.68C94.9866 20.2267 94.4399 20 93.7733 20C93.1066 20 92.5599 20.2267 92.1333 20.68C91.7066 21.1333 91.4933 21.76 91.4933 22.56C91.4933 23.3733 91.7066 24.0133 92.1333 24.48C92.5599 24.9333 93.1066 25.16 93.7733 25.16ZM113.054 17.16V28H109.434V26.84C109.034 27.28 108.554 27.6133 107.994 27.84C107.434 28.0667 106.84 28.18 106.214 28.18C104.814 28.18 103.694 27.7667 102.854 26.94C102.027 26.1133 101.614 24.8733 101.614 23.22V17.16H105.414V22.6C105.414 23.4133 105.567 24.0067 105.874 24.38C106.18 24.7533 106.627 24.94 107.214 24.94C107.814 24.94 108.3 24.7333 108.674 24.32C109.06 23.8933 109.254 23.2467 109.254 22.38V17.16H113.054ZM119.441 28.18C118.535 28.18 117.641 28.08 116.761 27.88C115.881 27.6667 115.175 27.3933 114.641 27.06L115.781 24.46C116.275 24.7667 116.861 25.0133 117.541 25.2C118.221 25.3733 118.895 25.46 119.561 25.46C120.175 25.46 120.608 25.4 120.861 25.28C121.128 25.1467 121.261 24.96 121.261 24.72C121.261 24.48 121.101 24.3133 120.781 24.22C120.475 24.1133 119.981 24.0133 119.301 23.92C118.435 23.8133 117.695 23.6733 117.081 23.5C116.481 23.3267 115.961 23.0067 115.521 22.54C115.081 22.0733 114.861 21.42 114.861 20.58C114.861 19.8867 115.068 19.2733 115.481 18.74C115.895 18.1933 116.495 17.7667 117.281 17.46C118.081 17.14 119.035 16.98 120.141 16.98C120.928 16.98 121.708 17.06 122.481 17.22C123.255 17.38 123.901 17.6067 124.421 17.9L123.281 20.48C122.321 19.9467 121.281 19.68 120.161 19.68C119.561 19.68 119.121 19.7533 118.841 19.9C118.561 20.0333 118.421 20.2133 118.421 20.44C118.421 20.6933 118.575 20.8733 118.881 20.98C119.188 21.0733 119.695 21.1733 120.401 21.28C121.295 21.4133 122.035 21.5667 122.621 21.74C123.208 21.9133 123.715 22.2333 124.141 22.7C124.581 23.1533 124.801 23.7933 124.801 24.62C124.801 25.3 124.595 25.9133 124.181 26.46C123.768 26.9933 123.155 27.4133 122.341 27.72C121.541 28.0267 120.575 28.18 119.441 28.18ZM137.519 22.6C137.519 22.6267 137.499 22.94 137.459 23.54H129.579C129.739 24.1 130.045 24.5333 130.499 24.84C130.965 25.1333 131.545 25.28 132.239 25.28C132.759 25.28 133.205 25.2067 133.579 25.06C133.965 24.9133 134.352 24.6733 134.739 24.34L136.739 26.42C135.685 27.5933 134.145 28.18 132.119 28.18C130.852 28.18 129.739 27.94 128.779 27.46C127.819 26.98 127.072 26.3133 126.539 25.46C126.019 24.6067 125.759 23.64 125.759 22.56C125.759 21.4933 126.012 20.54 126.519 19.7C127.039 18.8467 127.752 18.18 128.659 17.7C129.565 17.22 130.585 16.98 131.719 16.98C132.799 16.98 133.779 17.2067 134.659 17.66C135.539 18.1 136.232 18.7467 136.739 19.6C137.259 20.44 137.519 21.44 137.519 22.6ZM131.739 19.68C131.152 19.68 130.659 19.8467 130.259 20.18C129.872 20.5133 129.625 20.9667 129.519 21.54H133.959C133.852 20.9667 133.599 20.5133 133.199 20.18C132.812 19.8467 132.325 19.68 131.739 19.68ZM85.14 35V49H83.14V42.76H75.1V49H73.1V35H75.1V41.02H83.14V35H85.14ZM93.5905 49.12C92.5371 49.12 91.5905 48.8867 90.7505 48.42C89.9105 47.9533 89.2505 47.3133 88.7705 46.5C88.3038 45.6733 88.0705 44.74 88.0705 43.7C88.0705 42.66 88.3038 41.7333 88.7705 40.92C89.2505 40.0933 89.9105 39.4533 90.7505 39C91.5905 38.5333 92.5371 38.3 93.5905 38.3C94.6438 38.3 95.5838 38.5333 96.4105 39C97.2505 39.4533 97.9038 40.0933 98.3705 40.92C98.8505 41.7333 99.0905 42.66 99.0905 43.7C99.0905 44.74 98.8505 45.6733 98.3705 46.5C97.9038 47.3133 97.2505 47.9533 96.4105 48.42C95.5838 48.8867 94.6438 49.12 93.5905 49.12ZM93.5905 47.44C94.2705 47.44 94.8771 47.2867 95.4105 46.98C95.9571 46.66 96.3838 46.22 96.6905 45.66C96.9971 45.0867 97.1505 44.4333 97.1505 43.7C97.1505 42.9667 96.9971 42.32 96.6905 41.76C96.3838 41.1867 95.9571 40.7467 95.4105 40.44C94.8771 40.1333 94.2705 39.98 93.5905 39.98C92.9105 39.98 92.2971 40.1333 91.7505 40.44C91.2171 40.7467 90.7905 41.1867 90.4705 41.76C90.1638 42.32 90.0105 42.9667 90.0105 43.7C90.0105 44.4333 90.1638 45.0867 90.4705 45.66C90.7905 46.22 91.2171 46.66 91.7505 46.98C92.2971 47.2867 92.9105 47.44 93.5905 47.44ZM111.626 38.4V49H109.806V47.4C109.419 47.9467 108.906 48.3733 108.266 48.68C107.639 48.9733 106.952 49.12 106.206 49.12C104.792 49.12 103.679 48.7333 102.866 47.96C102.052 47.1733 101.646 46.02 101.646 44.5V38.4H103.566V44.28C103.566 45.3067 103.812 46.0867 104.306 46.62C104.799 47.14 105.506 47.4 106.426 47.4C107.439 47.4 108.239 47.0933 108.826 46.48C109.412 45.8667 109.706 45 109.706 43.88V38.4H111.626ZM120.941 38.3C122.288 38.3 123.354 38.6933 124.141 39.48C124.941 40.2533 125.341 41.3933 125.341 42.9V49H123.421V43.12C123.421 42.0933 123.174 41.32 122.681 40.8C122.188 40.28 121.481 40.02 120.561 40.02C119.521 40.02 118.701 40.3267 118.101 40.94C117.501 41.54 117.201 42.4067 117.201 43.54V49H115.281V38.4H117.121V40C117.508 39.4533 118.028 39.0333 118.681 38.74C119.348 38.4467 120.101 38.3 120.941 38.3ZM138.953 34.16V49H137.113V47.32C136.686 47.9067 136.146 48.3533 135.493 48.66C134.839 48.9667 134.119 49.12 133.333 49.12C132.306 49.12 131.386 48.8933 130.573 48.44C129.759 47.9867 129.119 47.3533 128.653 46.54C128.199 45.7133 127.973 44.7667 127.973 43.7C127.973 42.6333 128.199 41.6933 128.653 40.88C129.119 40.0667 129.759 39.4333 130.573 38.98C131.386 38.5267 132.306 38.3 133.333 38.3C134.093 38.3 134.793 38.4467 135.433 38.74C136.073 39.02 136.606 39.44 137.033 40V34.16H138.953ZM133.493 47.44C134.159 47.44 134.766 47.2867 135.313 46.98C135.859 46.66 136.286 46.22 136.593 45.66C136.899 45.0867 137.053 44.4333 137.053 43.7C137.053 42.9667 136.899 42.32 136.593 41.76C136.286 41.1867 135.859 40.7467 135.313 40.44C134.766 40.1333 134.159 39.98 133.493 39.98C132.813 39.98 132.199 40.1333 131.653 40.44C131.119 40.7467 130.693 41.1867 130.373 41.76C130.066 42.32 129.913 42.9667 129.913 43.7C129.913 44.4333 130.066 45.0867 130.373 45.66C130.693 46.22 131.119 46.66 131.653 46.98C132.199 47.2867 132.813 47.44 133.493 47.44Z" fill="white"/>
</svg>
