<svg width="56" height="56" viewBox="0 0 56 56" fill="none" xmlns="http://www.w3.org/2000/svg">
<rect width="56" height="56" rx="14" fill="#02C438"/>
<path d="M38 15.8571H24.3067C22.3759 15.8571 21.4104 15.8571 20.6529 16.1835C19.7142 16.5878 18.9659 17.3361 18.5616 18.2747C18.2353 19.0323 18.2353 19.9977 18.2353 21.9286V21.9286C18.2353 23.8594 18.2353 24.8249 18.5616 25.5824C18.9659 26.5211 19.7142 27.2694 20.6529 27.6737C21.4104 28 22.3759 28 24.3067 28H31.9286C33.8594 28 34.8248 28 35.5824 28.3263C36.5211 28.7306 37.2694 29.4789 37.6737 30.4176C38 31.1752 38 32.1406 38 34.0714V34.0714C38 36.0023 38 36.9677 37.6737 37.7253C37.2694 38.6639 36.5211 39.4122 35.5824 39.8165C34.8248 40.1429 33.8594 40.1429 31.9286 40.1429H17M28.1176 11V45" stroke="white" stroke-width="4" stroke-linecap="round" stroke-linejoin="round"/>
</svg>
