<svg width="56" height="56" viewBox="0 0 56 56" fill="none" xmlns="http://www.w3.org/2000/svg">
<rect width="56" height="56" rx="14" fill="#367DFE"/>
<path d="M34 22.0156V20.4C34 18.1598 34 17.0397 33.564 16.184C33.1805 15.4314 32.5686 14.8195 31.816 14.436C30.9603 14 29.8402 14 27.6 14H20.4C18.1598 14 17.0397 14 16.184 14.436C15.4314 14.8195 14.8195 15.4314 14.436 16.184C14 17.0397 14 18.1598 14 20.4V27.6C14 29.8402 14 30.9603 14.436 31.816C14.8195 32.5686 15.4314 33.1805 16.184 33.564C17.0397 34 18.1598 34 20.4 34H22M28.4 42H35.6C37.8402 42 38.9603 42 39.816 41.564C40.5686 41.1805 41.1805 40.5686 41.564 39.816C42 38.9603 42 37.8402 42 35.6V28.4C42 26.1598 42 25.0397 41.564 24.184C41.1805 23.4314 40.5686 22.8195 39.816 22.436C38.9603 22 37.8402 22 35.6 22H28.4C26.1598 22 25.0397 22 24.184 22.436C23.4314 22.8195 22.8195 23.4314 22.436 24.184C22 25.0397 22 26.1598 22 28.4V35.6C22 37.8402 22 38.9603 22.436 39.816C22.8195 40.5686 23.4314 41.1805 24.184 41.564C25.0397 42 26.1598 42 28.4 42Z" stroke="white" stroke-width="4"/>
</svg>
